PathFileType	4	(X/Y/Z)	OpenSim_Sub08_EMGBaseline_Accel.trc
DataRate	CameraRate	NumFrames	NumMarkers	Units	OrigDataRate	OrigDataStartFrame	OrigNumFrames
100	100	37	8	m	100	2496	6654
Frame#	Time	torso_imu_offset_imu	pelvis_imu_offset_imu	tibia_r_imu_offset_imu	femur_r_imu_offset_imu	tibia_l_imu_offset_imu	femur_l_imu_offset_imu	toes_r_imu_offset_imu	toes_l_imu_offset_imu
				X1	Y1	Z1	X2	Y2	Z2	X3	Y3	Z3	X4	Y4	Z4	X5	Y5	Z5	X6	Y6	Z6	X7	Y7	Z7	X8		Y8	Z8	

2496	24.95000000	9.23105741	0.03967158	6.64098857	9.75068076	0.65121729	2.94517490	10.70452001	-1.96080980	-0.12890768	9.72618430	-3.52673758	2.31362291	9.90026752	-1.78034043	-0.76507210	9.61759414	1.33894312	-1.93361341	17.81837845	-2.23585508	7.55419845	5.43902296	0.44602138	10.96345901
2497	24.96000000	9.09666537	0.11661039	6.67718274	9.99275202	0.76660356	2.87923116	13.44334192	1.26783356	-0.21656222	10.06394889	-3.88133910	2.61110565	9.91512859	-1.76292232	-0.84432800	9.58853241	1.36269670	-1.89493730	17.89695534	-2.22974730	7.06185640	5.66206084	0.57813642	10.87403890
2498	24.97000000	9.24343583	0.11984058	6.71355795	10.08357925	0.72732813	2.83198529	14.95690890	5.57849063	0.22769194	10.10008288	-4.04200399	2.74430878	9.83813689	-1.72733708	-1.03602829	9.50101160	1.30018234	-1.92378858	17.29491233	-1.44936958	6.37731434	5.89103103	0.55614668	10.64069466
2499	24.98000000	9.43934166	0.15292782	6.69111749	10.00191089	0.60556922	2.75509465	13.42108442	8.18861603	0.59636056	9.90415478	-4.04455772	2.43872467	9.96991401	-1.76808695	-1.13411633	9.47115619	1.18272197	-2.02174357	15.98599949	-0.89767782	5.74159319	5.73205263	0.44397303	10.74354689
2500	24.99000000	9.50746631	0.18933201	6.64833563	9.96743019	0.46897402	2.62028398	10.30352673	7.70981898	0.49000330	9.62995866	-4.05414162	2.00201415	10.08790142	-1.81422773	-1.16041750	9.46496306	1.22564473	-2.05382195	14.92161745	-0.09456916	5.73886780	5.19585733	0.66108072	11.21766628
2501	25	9.51125212	0.21054377	6.61311207	9.96652203	0.33835990	2.49106735	8.76661342	5.36889483	0.01581690	9.37476367	-4.25745092	1.76232764	10.03607583	-1.76190438	-1.10165160	9.49550792	1.30402098	-2.15812620	14.64747398	0.76333751	6.03191026	5.68468981	0.60945556	10.82689391
2502	25.01000000	9.43451321	0.20840044	6.54654250	10.02981319	0.20902000	2.42150238	9.78068143	2.75354903	-0.49449731	9.11730436	-4.53005056	1.70229113	10.01457335	-1.62270351	-1.14008588	9.50221667	1.29871418	-2.32802047	14.69944658	1.48462530	5.94972116	5.79425530	0.42544894	10.72157444
2503	25.02000000	9.40076849	0.17234148	6.53402080	10.16099207	0.05209850	2.41480568	11.26180123	0.50594469	-0.77016353	8.82624882	-4.65573666	1.86530782	10.25903176	-1.51651305	-1.02760919	9.49719072	1.41757251	-2.45920132	14.56999410	2.01799413	5.24470364	5.73344335	0.54504447	10.80454928
2504	25.03000000	9.28859393	0.11132139	6.53982376	10.25324130	-0.14274576	2.37508393	11.41519808	-1.48356840	-0.85623299	8.49986910	-4.77814638	2.13923923	10.17937714	-1.44434026	-0.97620380	9.44342166	1.39368684	-2.41913600	13.99504694	2.33957142	3.93815075	5.50782434	0.59098314	11.01620575
2505	25.04000000	9.15797894	0.04967085	6.50301585	10.26139106	-0.36295756	2.37279984	10.48357084	-3.36390859	-0.65828742	8.29051344	-4.91656800	2.17912218	10.19507417	-1.27871769	-0.85706240	9.48101693	1.30746918	-2.39673328	13.12127975	2.38409407	2.27202591	5.53483620	0.46674630	10.97311001
2506	25.05000000	9.15757803	-0.01550655	6.52702375	10.20625222	-0.70371710	2.47911021	9.59135811	-4.71493430	-0.38905987	8.22195615	-4.93630604	2.17383104	10.19617870	-1.15268398	-0.69170836	9.59079159	1.16266219	-2.41991237	12.68002737	2.82205228	1.15430367	5.71599185	0.36692651	10.81153134
2507	25.06000000	9.20273491	-0.03092543	6.56805612	10.07737904	-1.10433483	2.65120970	9.18478325	-4.78584425	0.23099656	8.19582355	-4.86316865	2.28866081	10.20531537	-0.97660827	-0.58215598	9.61351872	0.92954106	-2.36202706	12.54957783	3.70085151	0.68913597	5.87224041	0.28724235	10.74819163
2508	25.07000000	9.18126048	-0.05392259	6.58042210	9.84177676	-1.42513466	2.85900047	9.01055027	-2.43099910	-0.02557615	8.15128835	-4.69299488	2.47745503	10.19758595	-0.63809056	-0.43285381	9.49034045	0.99015647	-2.41941003	11.94264951	5.86693827	0.68548321	5.40345148	0.09992633	11.09915635
2509	25.08000000	9.14715745	-0.09269069	6.56408885	9.50332015	-1.55657678	2.93138365	8.56578486	2.24075083	-1.14718893	8.13077765	-4.61685451	2.57584239	10.05970279	-0.47811409	-0.56084333	9.79046333	1.11724367	-2.37287900	12.31563632	7.50426039	0.50928076	4.72899410	0.22855310	11.62297486
2510	25.09000000	9.11722009	-0.14464122	6.57456978	9.21108628	-1.49115447	2.81910095	7.78550144	6.18422512	0.59338960	7.99662587	-5.07438908	2.14170889	10.52748888	-0.05530207	-0.36809315	10.34966560	1.18395334	-2.24405268	12.95744628	4.08726217	-1.04675967	5.67980128	0.63553028	11.13312796
2511	25.10000000	9.11850940	-0.17223122	6.54523133	8.98752764	-1.48538903	2.75787901	6.58770058	6.99498597	1.61293620	7.69729155	-5.94304951	1.46502574	10.92108460	-0.11645579	-0.15064284	10.35816001	1.01108038	-2.14538518	12.57210486	1.99535991	-1.83753941	5.78972301	0.73027291	11.08634494
2512	25.11000000	9.00915458	-0.16227884	6.46517022	8.88278764	-1.48573491	2.54500538	5.51164424	6.05621344	0.25309685	7.59515462	-6.66903250	1.14490398	10.57771120	-0.55994031	-0.68257761	10.12210749	1.11970481	-2.10693284	13.69728153	3.64570633	0.01146442	5.79448944	0.68305371	10.96341716
2513	25.12000000	8.85196427	-0.18244630	6.38129962	8.87922672	-1.44418328	2.27077097	5.97618742	4.39473565	-0.04091396	7.62090126	-7.14227900	1.16805000	10.35262032	-0.67394749	-0.61107056	9.73365155	1.54168896	-2.11909330	10.09362874	7.66798102	0.54286847	5.49711187	0.80696911	11.19826229
2514	25.13000000	8.81820272	-0.15636416	6.38576361	9.06768921	-1.30235835	2.14035560	7.77167516	2.00448208	-1.15388910	7.84601456	-7.43391998	1.28946072	10.10394149	-0.81357928	-0.43474186	9.26858520	1.86279794	-2.18548184	-0.12247003	3.52005495	7.67822675	5.65046198	0.92095467	10.97409280
2515	25.14000000	9.14284988	-0.06412907	6.41417195	9.44441472	-0.89777661	2.19683393	10.37110279	0.87633066	-1.16980002	8.86468702	-7.34924827	1.12392006	9.85392705	-0.65310626	-0.74313570	8.96584616	2.30892685	-2.29231045	-1.57659152	-10.66321277	14.21014001	5.69086576	0.88627296	10.87847471
2516	25.15000000	9.75434917	-0.02832550	6.56795584	10.02145104	-0.11976756	2.37725077	13.88268926	-0.43715795	1.65461620	10.84970756	-6.46601702	0.79210172	10.21279822	-0.45870818	-0.78788449	9.05845131	2.77413290	-2.32811229	-1.74081288	-8.14837334	8.54958916	5.70004691	0.76313792	10.92490240
2517	25.16000000	10.37720908	-0.03465151	6.84601354	10.51031529	0.89862365	2.75217506	16.38872978	-4.97816235	3.07881684	12.16384499	-4.63051524	0.79885798	10.85642777	-0.36580300	-0.47584768	9.37578278	3.09265999	-2.11754461	-1.91590565	-5.77641169	7.96663660	5.39742609	0.94976044	11.08827483
2518	25.17000000	10.65617817	0.01247171	6.90541593	10.92307331	1.72282675	3.16535678	14.39860084	-9.07093768	2.46694908	11.35004118	-2.37902489	1.63771453	11.20953697	-0.49324369	0.10585263	9.89212136	3.14153167	-1.76719761	10.86251237	-11.21097911	8.47635551	5.01029647	1.44101734	11.43620992
2519	25.18000000	10.22317521	0.06768457	6.80688417	11.48235965	2.06881808	3.36440153	9.30372066	-8.95041728	1.89541891	10.69001399	-0.52966031	3.03216402	11.08982780	-0.57681495	0.59063605	10.02399950	3.05900003	-1.72173406	10.16804049	-12.08079359	7.74242648	5.13470691	1.10686396	11.25686509
2520	25.19000000	10.01477413	-0.00146531	6.90652362	11.97438429	2.13098239	3.67088829	7.40402360	-8.54413904	0.85523886	12.35309094	0.44598898	4.01377339	11.05151577	-0.30207958	0.69736215	9.70859136	3.20939118	-1.93947788	2.94855248	-4.78517057	9.41328543	5.27682903	0.53725416	11.03106158
2521	25.20000000	10.66572571	-0.15164856	7.05312327	12.14842433	2.10056292	4.19829993	11.43575765	-8.44265076	2.18907844	14.23836293	-0.06716781	4.11107697	11.51856759	0.56591535	0.96095709	9.83503832	3.37601372	-2.10979791	5.34755999	1.82742399	12.13595576	4.86895715	0.79835232	11.24253199
2522	25.21000000	11.30166073	-0.19222852	7.16770829	11.86337791	1.84211260	4.72992002	15.57824236	-6.75159248	3.66086493	13.65276895	-1.94255234	3.60541528	12.18257561	1.01352914	1.55089785	10.59701724	3.25452712	-1.93773067	7.55603370	2.59755795	11.97880298	4.28884519	1.31411875	11.65860978
2523	25.22000000	11.05899796	-0.17242897	7.07929174	11.26950679	1.16445812	4.96425537	14.48443575	-2.65942255	2.83258598	11.53407982	-3.39273043	3.15012125	12.53373576	0.67622138	1.93192682	11.14769386	2.74748719	-1.32475423	7.44941004	1.94358725	12.25452980	4.68369338	1.70940427	11.24952687
2524	25.23000000	10.43353920	-0.23190135	6.93514402	10.38853973	0.29488572	5.03472519	10.50538245	1.49958959	1.72149603	10.07614274	-3.16318652	2.51610606	12.73477723	-0.32466029	1.89396056	11.23762606	2.26946880	-0.70724285	7.30333183	-2.32406008	10.75421374	4.97902979	1.78295911	10.99222319
2525	25.24000000	10.12124614	-0.33032449	6.81414737	9.38245174	-0.51901501	5.07282468	8.18453642	3.88950773	1.03548791	9.40210903	-1.84163483	1.77356157	13.16999923	-2.51211824	1.85411301	11.46603542	2.07546551	-0.44993468	6.35190513	-4.28175708	8.98160174	5.07922936	1.10496624	11.11195063
2526	25.25000000	9.87157196	-0.40142393	6.72047804	8.43459592	-1.33886342	5.14212060	7.64270467	4.60953649	0.48287747	8.60191705	-0.48147447	1.08831307	13.83731670	-4.86231731	0.59633874	11.41010182	1.98528512	-0.27229666	5.19557291	-3.95300063	8.12417877	5.39886165	-0.39977673	10.88582969
2527	25.26000000	9.32627702	-0.44157588	6.57449613	7.68190938	-2.12895430	5.00034136	7.75075985	3.22139725	-0.71854644	7.84514622	0.22089102	0.48935582	15.12374199	-3.65402439	-0.01406900	11.22254866	1.06776611	-0.10898725	4.50543015	-3.40459732	8.45173458	6.56606167	-0.62587705	10.53580774
2528	25.27000000	8.92299447	-0.46927042	6.39410498	7.25042225	-2.70889325	4.61123395	8.39636765	0.60085539	-1.67412626	7.62873091	0.48447390	0.35997787	15.60061643	-0.35544849	0.50359711	11.03986443	-0.42300870	-0.19902233	3.81897520	-3.02230942	7.83197881	7.87669514	1.10797427	10.37295253
2529	25.28000000	8.60425329	-0.47443239	6.13834631	6.99668583	-2.73233626	4.52316303	9.18259959	-1.61958438	-1.58093342	7.66471713	0.53914881	0.92934900	13.99688467	0.19451305	-1.09432284	10.02166573	-1.36772850	-0.65769401	6.12164293	-5.62013291	9.05458197	9.55597729	-0.15973914	10.64054941
2530	25.29000000	8.12115260	-0.43297098	5.84480683	6.79903486	-2.12466555	4.69233388	9.46066664	-3.09165348	-1.19297055	8.01168215	0.18260060	1.73791888	12.16434845	-0.84455489	-1.45710207	8.35260342	-1.77564202	-0.89963623	9.97492476	-12.45894415	6.89570692	14.18909459	-0.68840270	11.04375575
2531	25.30000000	7.61694567	-0.39763011	5.62317462	6.87571447	-1.13165247	4.71601244	9.05267677	-4.13390234	-1.74445706	8.64436667	-0.71306117	1.42928649	11.03762305	0.05916955	0.61290354	7.58191558	-1.97918030	-0.38638391	5.42713127	-7.78567392	5.13697729	15.34941563	4.32219815	12.41531245
2532	25.31000000	7.33215727	-0.41542341	5.51581274	7.20667118	-0.00676799	4.60787739	9.19630446	-4.25560758	-2.18810056	9.05655849	-1.72393320	-0.16591482	10.46850950	1.76541169	0.65005544	8.33436843	-1.87093385	-0.10521823	3.39978986	1.19408048	10.45742579	14.19146229	4.36871779	12.45478201
